<mxfile host="drawio-plugin" modified="2022-01-23T13:46:24.565Z" agent="5.0 (Macintosh; Intel Mac OS X 12_1_0) AppleWebKit/537.36 (KHTML, like Gecko) Chrome/89.0.4389.114 Safari/537.36" version="15.5.4" etag="ltaenYWjoyBQ3ynf8BI3" type="embed"><diagram id="GntzGGq1zOvTuDu4nbvI" name="Page-1"><mxGraphModel dx="937" dy="778" grid="1" gridSize="10" guides="1" tooltips="1" connect="1" arrows="1" fold="1" page="1" pageScale="1" pageWidth="850" pageHeight="1100" math="0" shadow="0"><root><mxCell id="0"/><mxCell id="1" parent="0"/><mxCell id="12" style="edgeStyle=orthogonalEdgeStyle;rounded=0;orthogonalLoop=1;jettySize=auto;html=1;entryX=0;entryY=0.5;entryDx=0;entryDy=0;" edge="1" parent="1" source="14" target="15"><mxGeometry relative="1" as="geometry"><Array as="points"><mxPoint x="293" y="160"/><mxPoint x="293" y="120"/></Array></mxGeometry></mxCell><mxCell id="13" style="edgeStyle=orthogonalEdgeStyle;rounded=0;orthogonalLoop=1;jettySize=auto;html=1;entryX=0;entryY=0.5;entryDx=0;entryDy=0;" edge="1" parent="1" source="14" target="16"><mxGeometry relative="1" as="geometry"><Array as="points"><mxPoint x="310" y="250"/><mxPoint x="310" y="390"/></Array></mxGeometry></mxCell><mxCell id="14" value="BankingAppWithdrawalService" style="whiteSpace=wrap;html=1;aspect=fixed;" vertex="1" parent="1"><mxGeometry x="40" y="130" width="180" height="180" as="geometry"/></mxCell><mxCell id="15" value="CurrentAccount" style="whiteSpace=wrap;html=1;" vertex="1" parent="1"><mxGeometry x="400" y="90" width="120" height="60" as="geometry"/></mxCell><mxCell id="16" value="deposit&lt;br&gt;withdrawal" style="whiteSpace=wrap;html=1;" vertex="1" parent="1"><mxGeometry x="400" y="360" width="120" height="60" as="geometry"/></mxCell><mxCell id="17" value="deposit&lt;br&gt;withdrawal" style="rounded=1;whiteSpace=wrap;html=1;" vertex="1" parent="1"><mxGeometry x="400" y="160" width="120" height="60" as="geometry"/></mxCell><mxCell id="18" value="savingsAccount" style="rounded=1;whiteSpace=wrap;html=1;" vertex="1" parent="1"><mxGeometry x="400" y="290" width="120" height="60" as="geometry"/></mxCell><mxCell id="19" value="Problem with this approach is that, every time a new type of account is&lt;br&gt;introduced, BankAppWithdrawalService will get affected to support the new type of account as it was initially aware of two concrete implementation of account(savings and current), which will affect our users. It violates Open Closed principal." style="rounded=0;whiteSpace=wrap;html=1;" vertex="1" parent="1"><mxGeometry x="60" y="460" width="410" height="110" as="geometry"/></mxCell></root></mxGraphModel></diagram></mxfile>